<svg width="48" height="48" viewBox="0 0 48 48" fill="none" xmlns="http://www.w3.org/2000/svg">
<path d="M48 24C48 10.7452 37.2548 0 24 0C10.7452 0 0 10.7452 0 24C0 37.2548 10.7452 48 24 48C37.2548 48 48 37.2548 48 24Z" fill="url(#paint0_linear_818_6226)"/>
<path d="M48 24C48 10.7452 37.2548 0 24 0C10.7452 0 0 10.7452 0 24C0 37.2548 10.7452 48 24 48C37.2548 48 48 37.2548 48 24Z" fill="black" fill-opacity="0.05"/>
<path d="M2.52632 21.4737C1.13107 21.4737 0 22.6047 0 24C0 37.2548 10.7452 48 24 48C37.2548 48 48 37.2548 48 24C48 10.7452 37.2548 0 24 0C22.6047 0 21.4737 1.13107 21.4737 2.52632C21.4737 3.92156 22.6047 5.05263 24 5.05263C34.4644 5.05263 42.9474 13.5356 42.9474 24C42.9474 34.4644 34.4644 42.9474 24 42.9474C13.5356 42.9474 5.05263 34.4644 5.05263 24C5.05263 22.6047 3.92156 21.4737 2.52632 21.4737Z" fill="white"/>
<path d="M18 31.0649V16.9334C18 16.6847 18.0735 16.4414 18.2112 16.2342C18.5973 15.6532 19.3814 15.4953 19.9623 15.8814L30.5933 22.9472C30.7333 23.0401 30.8531 23.16 30.9461 23.3C31.3323 23.8809 31.1744 24.6649 30.5933 25.0511L19.9623 32.1168C19.7552 32.2545 19.5119 32.328 19.2632 32.328C18.5655 32.328 18 31.7624 18 31.0649Z" fill="white"/>
<defs>
<linearGradient id="paint0_linear_818_6226" x1="48" y1="0" x2="-9.92706" y2="23.023" gradientUnits="userSpaceOnUse">
<stop offset="0.0681344" stop-color="#7237CA"/>
<stop offset="1" stop-color="#A945D0"/>
</linearGradient>
</defs>
</svg>